# xmcd CD database file generated by OrangeCD 5.2
#
# Track frame offsets:
#	300
#	13936
#	26754
#	37743
#	51934
#	64492
#	74748
#	89724
#	104985
#	124776
#
# Disc length: 1873 seconds
#
# Revision: 6
# Processed by: cddbd v1.5.1PL0 Copyright (c) Steve Scherf et al.
# Submitted via: OrangeCD 5.2
#
DISCID=9e074d0a
DTITLE=Shania Twain - Shania Twain 1993
DYEAR=1993
DGENRE=Alternative
TTITLE0=What Made You Say That
TTITLE1=You Lay A Whole Lot Of Love On Me
TTITLE2=Dance With The One That Brought You
TTITLE3=Still Under The Weather
TTITLE4=God Ain't Gonna Getcha For That
TTITLE5=Got A Hold On Me
TTITLE6=There Goes The Neighborhood
TTITLE7=Forget Me
TTITLE8=When He Leaves You
TTITLE9=Crime Of The Century
EXTD=
EXTT0=
EXTT1=
EXTT2=
EXTT3=
EXTT4=
EXTT5=
EXTT6=
EXTT7=
EXTT8=
EXTT9=
PLAYORDER=
